<?xml version="1.0" encoding="UTF-8"?>
<svg width="350px" height="345px" viewBox="0 0 350 345" version="1.1" xmlns="http://www.w3.org/2000/svg" xmlns:xlink="http://www.w3.org/1999/xlink">
    <!-- Generator: Sketch 45.2 (43514) - http://www.bohemiancoding.com/sketch -->
    <title>LADIES OF THE LEAF Copy</title>
    <desc>Created with Sketch.</desc>
    <defs></defs>
    <g id="Page-1" stroke="none" stroke-width="1" fill="none" fill-rule="evenodd">
        <g id="Artboard" transform="translate(-426.000000, -257.000000)" fill="#262626">
            <g id="Group-2" transform="translate(426.000000, 257.000000)">
                <path d="M230.866521,333.535389 L221.977875,299.273168 L211.626163,301.960612 L222.68722,344.596622 L246.905116,338.309331 L244.732704,329.935542 L230.866521,333.535389 Z M291.278067,301.451035 L278.249082,309.996707 L280.123039,316.348611 L270.572131,322.613023 L258.573946,277.810253 L269.946704,270.350895 L306.181009,299.257267 L296.354063,305.702731 L291.278067,301.451035 Z M284.327869,295.664706 L271.008458,284.737579 L275.715489,301.31354 L284.327869,295.664706 Z M321.091645,272.305044 L284.929544,247.172586 L292.274517,236.596719 C296.606168,230.35967 300.419028,227.300246 305.535921,225.95125 C311.463207,224.361341 317.773978,225.691589 323.412447,229.610293 C329.050915,233.528997 332.895093,239.336795 333.678614,245.269025 C334.317758,250.135954 332.730602,255.546362 329.114616,260.752943 L321.091645,272.305044 Z M298.079607,243.284861 L319.982889,258.507519 L320.924552,257.151639 C325.369202,250.751884 324.012142,243.214849 317.506217,238.693267 C314.30747,236.470156 310.096295,235.473331 306.859288,236.198919 C304.081694,236.84173 301.09293,238.946044 299.24727,241.60357 L298.079607,243.284861 Z M306.049349,189.921668 L303.722796,200.363863 L346.701079,209.946328 L349.027631,199.504133 L306.049349,189.921668 Z M314.158249,158.401552 L313.717167,143.879541 L305.073026,144.142278 L305.838904,169.35777 L349.851438,168.020018 L349.085561,142.804526 L340.44142,143.067263 L340.882501,157.589274 L331.77646,157.86605 L331.335378,143.344039 L322.691237,143.606776 L323.132319,158.128787 L314.158249,158.401552 Z M326.082031,117.815092 C334.258105,114.799369 337.320835,107.26459 333.986441,98.2181584 C330.720562,89.3576128 323.387068,85.3055249 315.706513,88.1384772 C312.361756,89.3721823 309.946446,91.6003915 308.685505,94.6697575 C307.698276,97.1454657 307.343596,99.810174 307.283049,105.18182 C307.270944,108.775957 307.196202,109.718539 306.974742,110.644852 C306.711067,112.220208 305.948411,113.205369 304.709612,113.662297 C302.727534,114.393381 300.832998,113.262147 299.919466,110.783673 C298.868903,107.933427 299.644361,106.02853 302.379408,104.667787 L298.611086,94.4440808 C295.859776,95.9515941 294.269062,97.1717962 292.782852,99.0573095 C289.647449,102.958837 288.983766,108.412178 291.039214,113.988745 C294.21374,122.601443 301.517821,126.382837 309.260315,123.527038 C315.57819,121.196707 318.054744,116.271251 317.941228,106.036807 C317.894158,100.564084 318.350228,99.1289208 320.270366,98.4206827 C322.128565,97.735291 324.238333,99.0686797 325.129027,101.485192 C326.111075,104.149552 325.198935,107.019878 323.154917,107.773809 C323.031037,107.819501 322.721337,107.933733 322.450739,107.963157 L326.082031,117.815092 Z M228.91879,53.9361561 C218.327666,46.3860765 216.079331,32.7005576 223.703365,21.9981266 C231.020905,11.7259441 245.307791,9.42240402 255.683867,16.8191825 C266.382515,24.4459126 269.053536,38.6760275 261.697684,49.0019911 C257.981446,54.2187539 252.43667,57.5643635 245.868531,58.4775115 C240.129056,59.2515573 234.187471,57.6920332 228.91879,53.9361561 Z M234.988122,46.0989487 C240.848185,50.2764039 248.421096,48.8631423 252.750322,42.7858825 C256.964612,36.8699659 255.797171,29.0637967 250.098394,25.0013173 C244.50714,21.0154885 236.696319,22.4213364 232.596964,28.1759099 C228.229427,34.3069508 229.235582,41.9981441 234.988122,46.0989487 Z M185.638978,35.0483842 L171.230017,32.3699874 L169.65008,40.8755791 L194.573688,45.5084816 L202.618099,2.20138494 L192.103452,0.246879201 L188.859154,17.7125599 L174.450193,15.0341631 L172.870256,23.5397548 L187.279217,26.2181516 L185.638978,35.0483842 Z M101.785971,53.8519564 L92.4470365,57.700935 L95.7414023,65.6998432 L124.368592,53.9013402 L121.074227,45.902432 L111.674254,49.7765673 L98.1950166,17.0482098 L88.3067335,21.1235989 L101.785971,53.8519564 Z M60.0465532,65.2977517 L48.7228439,52.1317054 L56.8298612,45.1541785 L85.548166,78.5448739 L77.4411486,85.5224008 L65.68688,71.8557444 L54.7273936,81.2883271 L66.4816622,94.9549835 L58.3746449,101.93251 L29.6563401,68.5418151 L37.7633575,61.5642882 L49.0870668,74.7303345 L60.0465532,65.2977517 Z M43.3721912,124.083962 L35.3559006,120.039345 L28.8154505,133.01146 L21.0938764,129.115542 L27.6343265,116.143428 L19.5001492,112.039331 L12.9596991,125.011445 L5.23812503,121.115527 L16.5947247,98.5912197 L55.9099149,118.427687 L44.5533153,140.951995 L36.8317412,137.056077 L43.3721912,124.083962 Z M9.92309806,207.75798 L45.121057,204.126025 L44.0237272,193.484074 L0.223282071,198.00369 L2.79049182,222.900599 L11.3929781,222.012939 L9.92309806,207.75798 Z M51.6505332,244.590497 L57.5826286,257.852052 L65.4764907,254.31851 L55.1762159,231.291627 L14.9838036,249.283022 L25.2840784,272.309904 L33.1779405,268.776362 L27.2458451,255.514807 L35.5615166,251.792449 L41.493612,265.054004 L49.3874741,261.520462 L43.4553787,248.258907 L51.6505332,244.590497 Z M68.8755858,311.07106 L58.3741897,299.558211 L52.4022264,302.416761 L44.704169,293.977257 L87.0205389,275.019286 L96.1870118,285.068637 L73.4050186,325.44246 L65.4844741,316.759039 L68.8755858,311.07106 Z M73.4840363,303.288504 L82.1559739,288.399628 L66.5424355,295.678315 L73.4840363,303.288504 Z M127.313431,308.59666 L140.528652,314.934894 L144.267459,307.133965 L121.408698,296.170533 L102.372176,335.889766 L112.015716,340.514964 L119.693114,324.496263 L132.908335,330.834497 L136.647143,323.033568 L123.431921,316.695334 L127.313431,308.59666 Z" id="LADIES-OF-THE-LEAF-Copy"></path>
            </g>
        </g>
    </g>
</svg>